<svg width="868" height="868" viewBox="0 0 868 868" fill="none" xmlns="http://www.w3.org/2000/svg">
<rect width="868" height="868" rx="434" fill="#F46F40"/>
<path d="M475.25 667.552C452.49 667.552 433.523 660.534 418.35 646.499C403.556 632.464 395.969 612.928 395.59 587.892V431.986H346.656V384.19H395.59V298.84H447.938V384.19H516.218V431.986H447.938V570.822C447.938 589.409 451.542 602.117 458.749 608.945C465.956 615.394 474.112 618.618 483.216 618.618C487.389 618.618 491.372 618.239 495.165 617.48C499.338 616.342 503.131 615.014 506.545 613.497L523.046 660.155C509.39 665.086 493.458 667.552 475.25 667.552Z" fill="white"/>
<path d="M408.997 122.062C408.658 122.064 408.321 122.074 407.983 122.089L444.882 177.539H476.303C479.601 173.907 482.292 169.963 483.971 165.387H463.158C461.586 169.291 457.758 172.068 453.308 172.068C447.47 172.068 442.701 167.291 442.701 161.453C442.701 158.996 443.549 156.731 444.963 154.927L434.402 138.243L434.382 138.277C434.13 137.842 433.871 137.413 433.603 136.988C427.135 126.657 417.86 122.014 408.997 122.063L408.997 122.062ZM458.122 122.633C450.417 122.704 442.514 126.512 436.47 135.02H480.325C475.066 127.126 466.719 122.554 458.122 122.633L458.122 122.633ZM403.559 122.687C401.09 123.251 398.708 124.192 396.496 125.48C398.789 127.431 400.249 130.335 400.249 133.563C400.249 136.296 399.202 138.795 397.49 140.68L406.768 155.141H425.158L403.559 122.687ZM389.634 126.963C385.966 126.963 383.034 129.895 383.034 133.563C383.034 137.231 385.966 140.156 389.634 140.156C393.303 140.156 396.234 137.232 396.234 133.563C396.234 129.895 393.303 126.963 389.634 126.963ZM439.659 139.035L448.032 152.254C449.635 151.326 451.456 150.837 453.308 150.838C459.12 150.838 463.879 155.571 463.923 161.372H485.139C485.692 158.835 485.946 156.11 485.858 153.154C485.7 147.878 484.518 143.129 482.588 139.035H439.66L439.659 139.035ZM383.914 142.486C383.05 145.713 382.628 149.279 382.746 153.154C382.766 153.829 382.809 154.489 382.867 155.141H402.001L394.273 143.097C392.829 143.805 391.242 144.172 389.634 144.171C387.531 144.171 385.568 143.551 383.914 142.486L383.914 142.486ZM453.308 154.853C449.64 154.853 446.716 157.784 446.716 161.452C446.716 165.121 449.64 168.052 453.309 168.052C456.977 168.052 459.909 165.121 459.909 161.452C459.909 157.784 456.977 154.852 453.309 154.852L453.308 154.853ZM383.478 159.156C384.271 162.795 385.666 166.075 387.506 169.113H421.23L421.821 170.046L438.505 196.391L440.458 199.473H424.594C424.297 200.945 423.69 202.336 422.814 203.555C427.576 208.832 431.695 214.85 434.382 222.193C441.935 202.654 459.762 193.217 472.316 181.554H442.728L442.13 180.654L427.823 159.157H383.478V159.156ZM390.279 173.128C394.832 178.978 400.977 184.034 407.319 189.309C409.174 187.729 411.574 186.771 414.187 186.771C419.368 186.771 423.715 190.531 424.627 195.458H433.161L419.021 173.128H390.279ZM414.187 190.786C410.519 190.786 407.587 193.717 407.587 197.385C407.587 201.053 410.519 203.985 414.187 203.985C417.855 203.985 420.78 201.053 420.78 197.385C420.78 193.717 417.855 190.785 414.186 190.785L414.187 190.786Z" fill="white"/>
</svg>
